<?xml version="1.0" encoding="UTF-8" standalone="no"?>
<!-- Generator: Adobe Illustrator 24.1.2, SVG Export Plug-In . SVG Version: 6.00 Build 0)  -->

<svg
   version="1.1"
   id="Layer_1"
   x="0px"
   y="0px"
   viewBox="0 0 2000 2000"
   style="enable-background:new 0 0 2000 2000;"
   xml:space="preserve"
   sodipodi:docname="uacoders-logo.svg"
   inkscape:version="1.2.1 (9c6d41e, 2022-07-14)"
   xmlns:inkscape="http://www.inkscape.org/namespaces/inkscape"
   xmlns:sodipodi="http://sodipodi.sourceforge.net/DTD/sodipodi-0.dtd"
   xmlns="http://www.w3.org/2000/svg"
   xmlns:svg="http://www.w3.org/2000/svg"><defs
   id="defs9025"><linearGradient
     id="linearGradient16083"><stop
       style="stop-color:#acacac;stop-opacity:1;"
       offset="0"
       id="stop20158" /><stop
       style="stop-color:#2f2f2f;stop-opacity:0;"
       offset="1"
       id="stop20160" /></linearGradient><linearGradient
     id="linearGradient16083-1"><stop
       style="stop-color:#acacac;stop-opacity:1;"
       offset="0"
       id="stop16079" /><stop
       style="stop-color:#2f2f2f;stop-opacity:0;"
       offset="1"
       id="stop16081" /></linearGradient></defs><sodipodi:namedview
   id="namedview9023"
   pagecolor="#ffffff"
   bordercolor="#000000"
   borderopacity="0.25"
   inkscape:showpageshadow="2"
   inkscape:pageopacity="0.0"
   inkscape:pagecheckerboard="0"
   inkscape:deskcolor="#d1d1d1"
   showgrid="false"
   inkscape:zoom="0.6675088"
   inkscape:cx="734.82177"
   inkscape:cy="1248.6727"
   inkscape:window-width="2560"
   inkscape:window-height="1387"
   inkscape:window-x="2480"
   inkscape:window-y="251"
   inkscape:window-maximized="0"
   inkscape:current-layer="g9020" />
<style
   type="text/css"
   id="style9002">
	.st0{fill-rule:evenodd;clip-rule:evenodd;fill:#2E3191;}
</style>
<g
   id="g9020">
	<path
   class="st0"
   d="M514.16,599.69l212.97,0L592.04,982.71c-5.56,14.3-5.56,27.02,15.89,30.99l242.37-0.79   c7.95-3.97,12.71-4.77,20.66-19.87l135.89-396.54c23.84-59.6,89-122.38,185.95-137.48l596,0l-202.64,588.05l-203.43-1.59   l69.93-218.53l-263.83,0.79l46.09-112.05c13.51-28.61,24.63-38.94,55.63-42.12l216.94-1.59l15.1-50.06l-259.06,0.79   c-28.61,0-70.73,39.73-78.67,69.14l-119.2,328.99c-21.46,43.71-33.38,65.16-68.34,96.15c-19.07,16.69-75.49,48.47-103.31,50.86   l-439.45,1.59c-81.06,0-103.31-93.77-89.8-133.5L514.16,599.69z"
   id="path9004"
   style="stroke:#474747;stroke-opacity:1;stroke-width:28.6;stroke-dasharray:none;stroke-linejoin:round;stroke-linecap:round;paint-order:fill markers stroke;fill:#845454;fill-opacity:0.18480495" /><path
   class="st0"
   d="m 513.50674,597.43431 h 212.97 l -135.09,383.02 c -5.56,14.30006 -5.56,27.01999 15.89,30.98999 l 242.37001,-0.79 c 7.95,-3.97 12.71,-4.77 20.66,-19.86998 L 1006.1966,594.24431 c 23.84,-59.6 89,-122.38 185.95,-137.48 h 596.0001 l -202.6401,588.04999 -203.43,-1.59 69.93,-218.52999 -263.83,0.79 46.09,-112.05 c 13.51,-28.61 24.63,-38.94 55.63,-42.12 l 216.94,-1.59 15.1,-50.06 -259.06,0.79 c -28.61,0 -70.73,39.73 -78.67,69.14 l -119.2,328.98999 c -21.46,43.71 -33.38,65.16 -68.33985,96.15 -19.07,16.69 -75.49,48.47 -103.31,50.86 l -439.45001,1.59 c -81.06,0 -103.31,-93.77 -89.8,-133.5 z"
   id="path9004-4"
   style="clip-rule:evenodd;fill:#464646;fill-opacity:1;fill-rule:evenodd;stroke:#464646;stroke-width:10;stroke-linecap:round;stroke-linejoin:round;stroke-dasharray:none;stroke-opacity:1;paint-order:fill markers stroke" /><path
   class="st0"
   d="m 510.71964,594.4381 h 212.97001 l -135.09,383.01998 c -5.56,14.29995 -5.56,27.01992 15.89,30.98992 l 242.3699,-0.79 c 7.95,-3.97 12.71,-4.77 20.66,-19.86987 L 1003.4096,591.2481 c 23.84,-59.6 89,-122.38 185.95,-137.48 h 596 l -202.6401,588.0499 -203.4299,-1.59 69.9299,-218.5299 -263.8299,0.79 46.09,-112.05 c 13.51,-28.61 24.63,-38.94 55.63,-42.12 l 216.94,-1.59 15.1,-50.06 -259.06,0.79 c -28.61,0 -70.73,39.73 -78.67,69.14 l -119.2,328.9899 c -21.46,43.71 -33.38,65.16 -68.34005,96.1501 -19.07,16.69 -75.49,48.47 -103.31,50.86 l -439.44991,1.59 c -81.06,0 -103.31,-93.7701 -89.8,-133.5001 z"
   id="path9004-5"
   style="clip-rule:evenodd;opacity:1;fill:#845454;fill-opacity:0.184805;fill-rule:evenodd;stroke:#e0e0e0;stroke-width:12;stroke-dasharray:none;stroke-opacity:1;stroke-linejoin:round" />
	<g
   id="g9018">
		<path
   class="st0"
   d="M363.17,1332.37h35.76h46.89l-17.48,50.86h-46.89H344.9h-37.35l-2.38,6.36l0,0l-7.95,23.05l0,0l-8.74,24.63    l0,0l-15.89,45.3h34.17l41.32,0h43.71l-17.48,51.65h-44.5h-40.53h-42.12l0,0h-8.74c-25.43,0-40.53-13.51-34.97-30.2l48.47-140.66    c6.36-16.69,30.99-30.99,55.63-30.99h8.74l0,0L363.17,1332.37z"
   id="path9006" />
		<path
   class="st0"
   d="M526.08,1332.37h3.18l64.37,0h10.33l0,0h7.15c24.63,0,40.53,14.3,34.17,30.99l-48.47,140.66    c-5.56,15.1-28.61,28.61-51.65,29.4v0.79l0,0c-1.59,0-2.38,0-3.97,0h-7.15l0,0h-3.97h-3.97v-51.65h19.87l4.77-13.51l0,0    l7.95-23.05l0,0l8.74-24.63l0,0l13.51-38.14h-4.77h-50.06V1332.37z M510.98,1332.37h15.1v50.86h-14.3h-4.77l-2.38,4.77l0,0    l-7.95,23.84l0,0l-8.74,24.63l0,0l-15.89,46.09h6.36l47.68,0v51.65h-65.96h-9.54l0,0h-8.74c-24.63,0-40.53-13.51-34.17-30.2    l48.47-140.66c5.56-16.69,30.2-30.2,54.83-30.2V1332.37z"
   id="path9008" />
		<path
   class="st0"
   d="M750.17,1332.37h64.37h18.28l0,0c23.05,1.59,37.35,14.3,31.79,30.99l-49.27,140.66    c-6.36,15.89-30.2,29.4-54.83,30.2l0,0h-10.33l0-52.45h13.51h6.36l34.97-99.33h-7.95l-46.89,0L750.17,1332.37z M731.9,1332.37    h18.28l0,0l0,50.06h-17.48h-3.97l-33.38,99.33h54.83l0,52.45h-4.77h-68.34l0,0h-60.39l68.34-201.84L731.9,1332.37L731.9,1332.37z"
   id="path9010" />
		<polygon
   class="st0"
   points="985.39,1333.16 1041.02,1333.16 1068.83,1333.16 1050.56,1383.22 1023.54,1383.22 967.91,1383.22     944.87,1383.22 935.33,1410.24 945.66,1410.24 1015.59,1410.24 1030.69,1410.24 1017.18,1453.15 1002.08,1453.15 932.15,1453.15     921.03,1453.15 910.7,1481.76 916.26,1481.76 931.36,1481.76 973.47,1481.76 988.57,1481.76 1001.29,1481.76 1016.39,1481.76     998.11,1534.21 983.01,1534.21 970.3,1534.21 955.2,1534.21 913.08,1534.21 897.98,1534.21 893.21,1534.21 893.21,1534.21     832.02,1534.21 901.16,1332.37 961.55,1332.37 961.55,1333.16   "
   id="polygon9012" />
		<path
   class="st0"
   d="M1254.79,1333.96c9.54,1.59,15.1,5.56,15.89,12.71v4.77c0,2.38-0.79,5.56-2.38,9.54l-1.59,6.36l0,0    l-2.38,8.74l0,0l-4.77,17.48c0-0.79,0-0.79,0-0.79c-1.59,5.56-3.18,9.54-4.77,13.51v-11.92h0.79h-0.79L1254.79,1333.96z     M1161.02,1333.16h42.12h22.25l0.79-0.79c11.92,0,21.46,0,28.61,1.59l0,60.39h-0.79l0,0h0.79v11.92    c-7.15,15.89-17.48,21.46-38.94,23.05c15.1,3.97,23.05,14.3,19.87,27.02l0,0l-10.33,31.79l0,0l-0.79,0.79l-3.18,10.33l0,0    l-11.92,34.97h-48.47v-34.17l3.97-11.13l10.33-32.58l0,0l1.59-3.97h-15.89v-37.35l30.99,0h0.79l0.79-2.38l0,0l3.18-11.13l0,0    l3.18-10.33l0,0l2.38-7.95h-16.69h-24.63L1161.02,1333.16z M1147.51,1333.16h13.51l0,50.06l-30.2,0l-11.13,31.79h2.38h38.94v37.35    h-53.24h-0.79l-27.81,81.85h-61.19l69.14-201.84h60.39V1333.16L1147.51,1333.16z M1161.01,1534.21v-34.17l-11.13,34.17H1161.01z"
   id="path9014" />
		<path
   class="st0"
   d="M1397.82,1332.37l35.76,0h46.89l-17.48,50.06h-46.89h-35.76h-34.17l-3.18,7.95l0,0l-7.15,19.87h0.79H1401    l13.51,0l0,0h4.77c24.63,0,38.94,15.89,32.58,32.58l-4.77,11.92l0,0l-9.54,25.43l-8.74,23.84c-5.56,16.69-30.99,30.2-55.63,30.2    h-8.74l0,0h-13.51l-95.36,0h-20.66l19.07-52.45h20.66l96.15,0h11.92l2.38-7.95l0,0l7.95-20.66h-0.79h-64.37h-7.95l0,0H1312    c-26.22,0-42.91-15.1-38.14-31.79l4.77-14.3h0.79l10.33-27.81l0,0l5.56-16.69c5.56-16.69,30.99-30.2,55.63-30.2l0,0H1397.82z"
   id="path9016" />
	</g>
</g>
</svg>
