<?xml version="1.0" encoding="UTF-8" standalone="no"?>
<!-- Generator: Adobe Illustrator 24.1.2, SVG Export Plug-In . SVG Version: 6.00 Build 0)  -->

<svg
   version="1.1"
   id="Layer_1"
   x="0px"
   y="0px"
   viewBox="0 0 1000 1000"
   xml:space="preserve"
   sodipodi:docname="uacoders-logo2.svg"
   inkscape:version="1.2.1 (9c6d41e, 2022-07-14)"
   width="1000"
   height="1000"
   inkscape:export-filename="uacoders-logo.webp"
   inkscape:export-xdpi="72"
   inkscape:export-ydpi="72"
   xmlns:inkscape="http://www.inkscape.org/namespaces/inkscape"
   xmlns:sodipodi="http://sodipodi.sourceforge.net/DTD/sodipodi-0.dtd"
   xmlns:xlink="http://www.w3.org/1999/xlink"
   xmlns="http://www.w3.org/2000/svg"
   xmlns:svg="http://www.w3.org/2000/svg"><defs
   id="defs9025"><linearGradient
     inkscape:collect="always"
     id="linearGradient29509"><stop
       style="stop-color:#848383;stop-opacity:1;"
       offset="0"
       id="stop29505" /><stop
       style="stop-color:#845454;stop-opacity:0;"
       offset="1"
       id="stop29507" /></linearGradient><linearGradient
     id="linearGradient16083"><stop
       style="stop-color:#acacac;stop-opacity:1;"
       offset="0"
       id="stop20158" /><stop
       style="stop-color:#2f2f2f;stop-opacity:0;"
       offset="1"
       id="stop20160" /></linearGradient><linearGradient
     id="linearGradient16083-1"><stop
       style="stop-color:#acacac;stop-opacity:1;"
       offset="0"
       id="stop16079" /><stop
       style="stop-color:#2f2f2f;stop-opacity:0;"
       offset="1"
       id="stop16081" /></linearGradient><radialGradient
     inkscape:collect="always"
     xlink:href="#linearGradient29509"
     id="radialGradient29511"
     cx="1074.4342"
     cy="811.9743"
     fx="1074.4342"
     fy="811.9743"
     r="719.92139"
     gradientTransform="matrix(0.63822501,0,0,0.32022003,-185.30543,203.42694)"
     gradientUnits="userSpaceOnUse" /></defs><sodipodi:namedview
   id="namedview9023"
   pagecolor="#ffffff"
   bordercolor="#000000"
   borderopacity="0.25"
   inkscape:showpageshadow="2"
   inkscape:pageopacity="0.0"
   inkscape:pagecheckerboard="0"
   inkscape:deskcolor="#d1d1d1"
   showgrid="false"
   inkscape:zoom="0.472"
   inkscape:cx="706.5678"
   inkscape:cy="1113.3475"
   inkscape:window-width="2560"
   inkscape:window-height="1387"
   inkscape:window-x="2480"
   inkscape:window-y="251"
   inkscape:window-maximized="0"
   inkscape:current-layer="g9020" />
<style
   type="text/css"
   id="style9002">
	.st0{fill-rule:evenodd;clip-rule:evenodd;fill:#2E3191;}
</style>
<g
   id="g9020">
	<path
   class="st0"
   d="M 142.84433,327.95221 H 278.7671 l -86.2178,244.45293 c -3.54854,9.12661 -3.54854,17.24485 10.14139,19.77859 l 154.68657,-0.50419 c 5.0739,-2.53375 8.11186,-3.04432 13.18573,-12.68155 l 86.7284,-253.08172 c 15.21528,-38.03821 56.80204,-78.10596 118.67793,-87.74317 h 380.38211 l -129.32992,375.30821 -129.83412,-1.01478 44.63108,-139.47131 -168.38289,0.5042 29.41577,-71.51312 c 8.62243,-18.25961 15.71949,-24.85247 35.50447,-26.88201 l 138.45652,-1.0148 9.6372,-31.94954 -165.33858,0.5042 c -18.25961,0 -45.14164,25.35669 -50.20915,44.12687 L 494.8254,596.74064 c -13.69632,27.89682 -21.30394,41.58676 -43.61631,61.36535 -12.17093,10.65197 -48.17959,30.93475 -65.93502,32.46013 l -280.46795,1.01477 c -51.734518,0 -65.935033,-59.84635 -57.312619,-85.20304 z"
   id="path9004"
   style="fill:#845454;fill-opacity:0.184805;stroke:#474747;stroke-width:8.10547;stroke-linecap:round;stroke-linejoin:round;stroke-dasharray:none;stroke-opacity:0.519507;paint-order:fill markers stroke" /><path
   class="st0"
   d="m 142.42741,326.51257 h 135.92276 l -86.21781,244.45292 c -3.54852,9.12667 -3.54852,17.24484 10.1414,19.77861 l 154.68659,-0.50419 c 5.07388,-2.53376 8.11183,-3.04436 13.18573,-12.68153 l 86.72829,-253.08175 c 15.21528,-38.03819 56.80202,-78.10595 118.67794,-87.74317 h 380.38215 l -129.32998,375.30819 -129.83409,-1.01477 44.63105,-139.4713 -168.38288,0.50421 29.41579,-71.51312 c 8.62242,-18.25961 15.71949,-24.85248 35.50444,-26.88204 l 138.45653,-1.01476 9.63719,-31.94954 -165.33855,0.50419 c -18.25961,0 -45.14165,25.35668 -50.20916,44.12686 l -76.07642,209.96963 c -13.69632,27.89682 -21.30395,41.58676 -43.61619,61.36534 -12.17095,10.65199 -48.17961,30.93476 -65.93504,32.46013 l -280.46796,1.01478 c -51.734526,0 -65.935026,-59.84638 -57.312599,-85.20304 z"
   id="path9004-4"
   style="clip-rule:evenodd;fill:#464646;fill-opacity:1;fill-rule:evenodd;stroke:#464646;stroke-width:6.38226;stroke-linecap:round;stroke-linejoin:round;stroke-dasharray:none;stroke-opacity:1;paint-order:fill markers stroke" /><path
   class="st0"
   d="m 142.56086,326.51257 h 135.92279 l -86.21781,244.45292 c -3.54854,9.12659 -3.54854,17.24478 10.14139,19.77853 l 154.68653,-0.50419 c 5.07388,-2.53375 8.11183,-3.04432 13.18572,-12.68144 l 86.72841,-253.08173 c 15.21527,-38.03822 56.80201,-78.10598 118.67794,-87.7432 H 956.0679 l -129.32995,375.30813 -129.83405,-1.01478 44.631,-139.47122 -168.38282,0.5042 29.41577,-71.51312 c 8.62245,-18.25961 15.71949,-24.85248 35.50445,-26.88204 l 138.45654,-1.01476 9.63721,-31.94954 -165.33857,0.5042 c -18.25963,0 -45.14165,25.35667 -50.20915,44.12685 l -76.07644,209.96958 c -13.69629,27.89682 -21.30395,41.58673 -43.61629,61.36539 -12.17096,10.65199 -48.17962,30.93476 -65.93504,32.46013 l -280.4679,1.01478 c -51.734531,0 -65.935032,-59.84644 -57.312605,-85.20312 z"
   id="path9004-5"
   style="clip-rule:evenodd;opacity:1;fill:url(#radialGradient29511);fill-opacity:1;fill-rule:evenodd;stroke:#e0e0e0;stroke-width:7.65869;stroke-linejoin:round;stroke-dasharray:none;stroke-opacity:1" />
	
</g>
</svg>
